<svg xmlns="http://www.w3.org/2000/svg" width="64" height="64" viewBox="0 0 256 256">
  <path fill="#25D366" d="M128 0C57.31 0 0 57.31 0 128c0 22.62 5.93 44.29 17.18 63.53L0 256l66.41-17.05A127.72 127.72 0 00128 256c70.69 0 128-57.31 128-128S198.69 0 128 0z"/>
  <path fill="#FFF" d="M190.38 156.58l-27.58-7.87a8.06 8.06 0 00-8.04 2.1l-11.51 11.75a83.67 83.67 0 01-40.21-40.2l11.75-11.52a8.06 8.06 0 002.1-8.04l-7.87-27.59a8.11 8.11 0 00-7.77-5.68h-17.1a8.08 8.08 0 00-8.08 8.08c0 66.28 53.72 120 120 120a8.08 8.08 0 008.08-8.08v-17.1a8.11 8.11 0 00-5.68-7.78z"/>
</svg>